<svg width="109" height="111" viewBox="0 0 109 111" fill="none" xmlns="http://www.w3.org/2000/svg">
<g filter="url(#filter0_d_3_214)">
<path d="M101.809 77.8414H71.3354V57.4039C71.3354 57.1215 71.2233 56.8508 71.0236 56.6512C70.824 56.4515 70.5533 56.3394 70.271 56.3394H63.1051V28.8701L79.1059 14.8428C79.9936 14.0565 80.5378 12.9537 80.6217 11.7709C80.7057 10.5881 80.3228 9.41942 79.5551 8.51565C79.174 8.06846 78.7078 7.70154 78.1835 7.43625C77.6592 7.17097 77.0875 7.01262 76.5014 6.97042C75.9154 6.92822 75.3268 7.00301 74.7699 7.19045C74.2131 7.37788 73.6991 7.67422 73.2578 8.0622L62.9433 17.0973C62.9877 16.7442 63.0104 16.3887 63.0114 16.0328C63.0114 13.7743 62.1142 11.6084 60.5172 10.0114C58.9202 8.41437 56.7542 7.5172 54.4958 7.5172C52.2373 7.5172 50.0713 8.41437 48.4743 10.0114C46.8773 11.6084 45.9801 13.7743 45.9801 16.0328C45.9811 16.3887 46.0039 16.7442 46.0483 17.0973L35.7422 8.05368C35.3004 7.6662 34.786 7.37048 34.2288 7.18375C33.6716 6.99701 33.0829 6.92298 32.4968 6.96598C31.9108 7.00897 31.3391 7.16812 30.8152 7.43417C30.2912 7.70022 29.8254 8.06785 29.4449 8.51565C28.6752 9.42014 28.291 10.5905 28.375 11.7752C28.459 12.96 29.0045 14.0644 29.8941 14.8513L45.895 28.8786V56.3458H38.7312C38.4489 56.3458 38.1782 56.4579 37.9785 56.6576C37.7789 56.8572 37.6668 57.1279 37.6668 57.4102V77.8477H7.19147C6.90916 77.8477 6.63841 77.9599 6.43879 78.1595C6.23916 78.3591 6.12701 78.6299 6.12701 78.9122V100.985C6.12701 101.267 6.23916 101.538 6.43879 101.737C6.63841 101.937 6.90916 102.049 7.19147 102.049C7.47378 102.049 7.74453 101.937 7.94415 101.737C8.14377 101.538 8.25592 101.267 8.25592 100.985V79.9703H37.6668V100.985C37.6668 101.267 37.7789 101.538 37.9785 101.737C38.1782 101.937 38.4489 102.049 38.7312 102.049C39.0135 102.049 39.2843 101.937 39.4839 101.737C39.6835 101.538 39.7957 101.267 39.7957 100.985V58.4747H69.2065V100.985C69.2065 101.267 69.3187 101.538 69.5183 101.737C69.7179 101.937 69.9886 102.049 70.271 102.049C70.5533 102.049 70.824 101.937 71.0236 101.737C71.2233 101.538 71.3354 101.267 71.3354 100.985V79.9703H100.744V100.985C100.744 101.267 100.856 101.538 101.056 101.737C101.256 101.937 101.526 102.049 101.809 102.049C102.091 102.049 102.362 101.937 102.561 101.737C102.761 101.538 102.873 101.267 102.873 100.985V78.9058C102.873 78.6235 102.761 78.3528 102.561 78.1531C102.362 77.9535 102.091 77.8414 101.809 77.8414ZM48.1133 16.0371C48.111 14.9873 48.3675 13.9531 48.8601 13.0261C49.3527 12.0991 50.0662 11.3077 50.9375 10.7222C51.8088 10.1366 52.8111 9.77486 53.8555 9.66892C54.8999 9.56298 55.9544 9.71612 56.9255 10.1148C57.8966 10.5135 58.7545 11.1454 59.4232 11.9546C60.092 12.7639 60.5509 13.7255 60.7594 14.7543C60.968 15.7832 60.9197 16.8476 60.6188 17.8534C60.318 18.8591 59.7738 19.7752 59.0346 20.5206L58.86 20.6717C58.8211 20.7081 58.7848 20.7472 58.7514 20.7888C57.5824 21.8401 56.0658 22.4217 54.4936 22.4217C52.9214 22.4217 51.4048 21.8401 50.2358 20.7888C50.2025 20.7472 50.1662 20.7081 50.1273 20.6717L49.9527 20.5206C48.7724 19.327 48.1113 17.7156 48.1133 16.0371ZM48.0154 28.3549C48.0154 28.3166 48.0154 28.2804 48.0047 28.2421C48.0011 28.2091 47.9954 28.1764 47.9877 28.1442C47.9797 28.1117 47.9698 28.0797 47.9579 28.0484C47.9481 28.0142 47.936 27.9808 47.9217 27.9483C47.9082 27.9188 47.8925 27.8904 47.8749 27.8632C47.8577 27.8307 47.8385 27.7994 47.8174 27.7695C47.7993 27.7439 47.7794 27.7197 47.7578 27.6971C47.7332 27.6672 47.7069 27.6388 47.679 27.6119L47.6556 27.5885L31.2949 13.2418C30.8248 12.8257 30.5368 12.2417 30.493 11.6153C30.4492 10.989 30.6531 10.3705 31.0608 9.89305C31.2585 9.65864 31.5014 9.46641 31.775 9.32779C32.0485 9.18918 32.3472 9.10702 32.6532 9.0862C32.9575 9.06541 33.2629 9.10492 33.5519 9.20246C33.8408 9.30001 34.1077 9.45367 34.3372 9.65462L48.5178 22.0874C50.1089 23.6639 52.2581 24.5483 54.4979 24.5483C56.7377 24.5483 58.8869 23.6639 60.478 22.0874L74.6586 9.65462C75.1226 9.24979 75.7282 9.04539 76.3426 9.0862C76.6486 9.10702 76.9472 9.18918 77.2208 9.32779C77.4944 9.46641 77.7373 9.65864 77.935 9.89305C78.3432 10.37 78.5479 10.9881 78.5049 11.6145C78.4619 12.2408 78.1747 12.8252 77.7051 13.2418L61.3423 27.5885C61.334 27.5958 61.3262 27.6036 61.3189 27.6119C61.291 27.6388 61.2647 27.6672 61.2401 27.6971C61.2185 27.7197 61.1986 27.7439 61.1805 27.7695C61.1594 27.7994 61.1402 27.8307 61.123 27.8632C61.1054 27.8904 61.0897 27.9188 61.0762 27.9483C61.0619 27.9808 61.0498 28.0142 61.04 28.0484C61.0282 28.0797 61.0182 28.1117 61.0102 28.1442C61.0025 28.1764 60.9968 28.2091 60.9932 28.2421C60.9932 28.2804 60.9932 28.3166 60.9825 28.3549C60.9719 28.3933 60.9825 28.3762 60.9825 28.3869V56.3458H55.5645V42.5441C55.5645 42.2618 55.4523 41.991 55.2527 41.7914C55.0531 41.5918 54.7823 41.4796 54.5 41.4796C54.2177 41.4796 53.947 41.5918 53.7473 41.7914C53.5477 41.991 53.4356 42.2618 53.4356 42.5441V56.3458H48.0239V28.3869C48.0239 28.3762 48.0196 28.3656 48.0196 28.3549H48.0154Z" fill="#FF2424"/>
<path d="M11.4769 47.3427C11.4812 47.3813 11.4876 47.4197 11.4961 47.4576C11.4961 47.4747 11.4961 47.4938 11.4961 47.5109C11.4961 47.5279 11.4961 47.5364 11.5088 47.5513C11.5216 47.5662 11.528 47.6067 11.5386 47.6343C11.5493 47.662 11.5685 47.7003 11.5855 47.7323C11.6025 47.7642 11.611 47.7812 11.6238 47.8025C11.6502 47.8368 11.6787 47.8695 11.709 47.9004C11.726 47.9196 11.7388 47.9409 11.7558 47.9579C11.7878 47.992 11.8219 48.024 11.858 48.0537C11.8708 48.0537 11.8814 48.0771 11.8963 48.0878C11.9459 48.1256 11.9986 48.159 12.0538 48.1879L12.1113 48.2113C12.1534 48.2307 12.1968 48.2471 12.2412 48.2602H12.271C12.3349 48.2773 18.6428 50.0379 18.6428 58.6387C18.6428 58.921 18.755 59.1917 18.9546 59.3913C19.1542 59.591 19.425 59.7031 19.7073 59.7031C19.9896 59.7031 20.2603 59.591 20.4599 59.3913C20.6596 59.1917 20.7717 58.921 20.7717 58.6387C20.7717 50.1081 26.8795 48.3326 27.1457 48.2602H27.1691C27.2189 48.247 27.2673 48.2292 27.3138 48.207L27.3586 48.1879C27.4149 48.1578 27.469 48.1237 27.5203 48.0857L27.5502 48.0601C27.5885 48.0261 27.6247 47.992 27.6587 47.9558L27.7013 47.9026C27.7271 47.8705 27.7513 47.8371 27.7737 47.8025L27.8099 47.7365C27.8272 47.7033 27.8429 47.6692 27.8567 47.6343C27.8674 47.6067 27.878 47.579 27.8865 47.5513C27.8917 47.5389 27.896 47.5261 27.8993 47.513C27.9015 47.4953 27.9015 47.4774 27.8993 47.4598C27.9079 47.4211 27.9143 47.382 27.9185 47.3427C27.9206 47.3094 27.9206 47.2759 27.9185 47.2426C27.9206 47.2086 27.9206 47.1745 27.9185 47.1404C27.9143 47.1011 27.9079 47.062 27.8993 47.0233C27.9013 47.0064 27.9013 46.9892 27.8993 46.9722C27.896 46.9599 27.8917 46.9478 27.8865 46.9361C27.8749 46.8978 27.8614 46.8601 27.8461 46.8232L27.8078 46.7402C27.7886 46.7083 27.7694 46.6763 27.7481 46.6465L27.6928 46.5678C27.6694 46.5401 27.6417 46.5145 27.6161 46.4869C27.5906 46.4592 27.5736 46.4443 27.5502 46.4251C27.52 46.4 27.488 46.3772 27.4544 46.357L27.382 46.3102L27.2755 46.2612C27.2457 46.2612 27.218 46.2378 27.1882 46.2293C27.1584 46.2207 27.1584 46.2165 27.1435 46.2122C27.0775 46.1952 20.7717 44.4367 20.7717 35.8359C20.7717 35.5536 20.6596 35.2829 20.4599 35.0833C20.2603 34.8836 19.9896 34.7715 19.7073 34.7715C19.425 34.7715 19.1542 34.8836 18.9546 35.0833C18.755 35.2829 18.6428 35.5536 18.6428 35.8359C18.6428 44.3665 12.5328 46.1398 12.2667 46.2144L12.2199 46.2314L12.1454 46.2591C12.1047 46.2753 12.0649 46.2938 12.0262 46.3144L11.9687 46.3506C11.9304 46.3762 11.892 46.4017 11.858 46.4294L11.8048 46.4805C11.775 46.5103 11.7452 46.5401 11.7175 46.572L11.6685 46.6401C11.6444 46.6742 11.6231 46.7083 11.6046 46.7423C11.5919 46.7679 11.5812 46.7955 11.5685 46.8211C11.5511 46.8589 11.5369 46.8981 11.5259 46.9382C11.5204 46.949 11.5161 46.9604 11.5131 46.9722C11.5131 46.9893 11.5131 47.0063 11.5131 47.0233C11.5045 47.0627 11.4981 47.1025 11.4939 47.1426C11.4939 47.1745 11.4939 47.2086 11.4939 47.2405C11.4939 47.2724 11.4748 47.3065 11.4769 47.3427ZM19.6987 41.684C20.6247 43.9899 22.2664 45.9377 24.3823 47.2405C22.2665 48.5424 20.6247 50.4895 19.6987 52.7948C18.772 50.4899 17.1304 48.5431 15.0152 47.2405C17.1305 45.937 18.772 43.9895 19.6987 41.684Z" fill="#FF2424"/>
<path d="M81.0858 28.5061C81.0943 28.5571 81.1021 28.6082 81.1092 28.6594C81.1092 28.6806 81.1241 28.6977 81.1305 28.719L81.1411 28.7488C81.1618 28.8035 81.186 28.8568 81.2135 28.9084V28.9255C81.2453 28.9802 81.2816 29.0322 81.3221 29.0809C81.4116 29.1836 81.52 29.2681 81.6414 29.33H81.6606C81.7131 29.3559 81.768 29.3765 81.8245 29.3917H81.8458C82.1055 29.4641 88.2325 31.2353 88.2325 39.7723C88.2325 40.0546 88.3447 40.3253 88.5443 40.5249C88.7439 40.7246 89.0147 40.8367 89.297 40.8367C89.5793 40.8367 89.85 40.7246 90.0497 40.5249C90.2493 40.3253 90.3614 40.0546 90.3614 39.7723C90.3614 31.2396 96.4693 29.4662 96.7354 29.3917H96.7588C96.8076 29.3775 96.8553 29.3597 96.9014 29.3385L96.9461 29.3193C97.0031 29.2903 97.0573 29.2561 97.1079 29.2171L97.1377 29.1895C97.1771 29.1582 97.2141 29.124 97.2484 29.0873L97.291 29.034C97.3163 29.0021 97.3398 28.9687 97.3613 28.934C97.3753 28.912 97.3881 28.8893 97.3996 28.8659C97.4166 28.8339 97.4315 28.7999 97.4464 28.7658C97.4613 28.7317 97.4677 28.7105 97.4762 28.6828C97.4814 28.6703 97.4857 28.6575 97.489 28.6445C97.489 28.6253 97.489 28.6083 97.489 28.5912C97.4976 28.5519 97.504 28.5121 97.5082 28.472C97.5082 28.4401 97.5082 28.406 97.5082 28.3741C97.5082 28.3422 97.5082 28.306 97.5082 28.2698C97.5039 28.2311 97.4975 28.1928 97.489 28.1548C97.489 28.1378 97.489 28.1207 97.489 28.1016C97.4853 28.09 97.4811 28.0787 97.4762 28.0675C97.4652 28.0288 97.451 27.991 97.4337 27.9547C97.4227 27.9255 97.4099 27.8971 97.3953 27.8695C97.3782 27.8378 97.359 27.8072 97.3379 27.778C97.3206 27.7504 97.3014 27.7241 97.2804 27.6992C97.258 27.6714 97.2338 27.6451 97.208 27.6205C97.1846 27.597 97.1633 27.5757 97.1377 27.5545C97.1122 27.5332 97.0781 27.5119 97.0483 27.4906C97.0185 27.4693 96.9951 27.4544 96.9674 27.4395C96.9398 27.4246 96.9036 27.4097 96.8695 27.3948L96.7737 27.3586L96.7311 27.3437C96.6673 27.3267 90.3614 25.5682 90.3614 16.9674C90.3614 16.6851 90.2493 16.4143 90.0497 16.2147C89.85 16.0151 89.5793 15.903 89.297 15.903C89.0147 15.903 88.7439 16.0151 88.5443 16.2147C88.3447 16.4143 88.2325 16.6851 88.2325 16.9674C88.2325 25.5022 82.1162 27.2734 81.8458 27.3458C81.8334 27.3491 81.8213 27.3534 81.8096 27.3586C81.7735 27.3702 81.7379 27.3837 81.7032 27.399L81.6159 27.4395L81.5286 27.4948L81.4434 27.5545C81.42 27.5736 81.3987 27.597 81.3774 27.6183C81.3496 27.6444 81.3233 27.6721 81.2987 27.7014C81.2816 27.7226 81.2689 27.7439 81.254 27.7652C81.2279 27.8015 81.2037 27.8392 81.1816 27.8781L81.1582 27.9334C81.1357 27.98 81.1172 28.0284 81.1028 28.0782V28.0973C81.1028 28.0973 81.1028 28.1186 81.1028 28.1293C81.0898 28.181 81.0813 28.2337 81.0773 28.2868C81.0762 28.3059 81.0762 28.3251 81.0773 28.3443C81.075 28.3984 81.0778 28.4525 81.0858 28.5061ZM89.3034 22.8325C90.2292 25.1385 91.8709 27.0863 93.987 28.389C91.8705 29.6902 90.2285 31.6375 89.3034 33.9433C88.3773 31.638 86.7355 29.691 84.6198 28.389C86.7351 27.0855 88.3767 25.138 89.3034 22.8325Z" fill="#FF2424"/>
<path d="M56.6416 66.8753C56.4472 66.7946 56.2332 66.7733 56.0266 66.8142C55.8201 66.8552 55.6304 66.9564 55.4814 67.1052L52.0134 70.5732C51.8195 70.7739 51.7122 71.0428 51.7146 71.3219C51.7171 71.601 51.829 71.868 52.0264 72.0654C52.2237 72.2627 52.4907 72.3747 52.7698 72.3771C53.0489 72.3795 53.3178 72.2722 53.5185 72.0783L55.1684 70.4284V82.0203C55.1684 82.3026 55.2806 82.5734 55.4802 82.773C55.6798 82.9726 55.9506 83.0848 56.2329 83.0848C56.5152 83.0848 56.786 82.9726 56.9856 82.773C57.1852 82.5734 57.2974 82.3026 57.2974 82.0203V67.8588C57.2975 67.6484 57.2353 67.4427 57.1186 67.2677C57.0019 67.0926 56.8359 66.9561 56.6416 66.8753Z" fill="#FF2424"/>
<path d="M27.9824 90.1592C27.9784 88.979 27.508 87.8482 26.6737 87.0135C25.8394 86.1788 24.7089 85.7079 23.5287 85.7034H23.0326C21.8521 85.7073 20.721 86.178 19.8863 87.0128C19.0515 87.8476 18.5808 88.9786 18.5768 90.1592C18.5768 90.4415 18.689 90.7122 18.8886 90.9118C19.0882 91.1115 19.359 91.2236 19.6413 91.2236C19.9236 91.2236 20.1944 91.1115 20.394 90.9118C20.5936 90.7122 20.7057 90.4415 20.7057 90.1592C20.7063 89.5422 20.9516 88.9507 21.3879 88.5144C21.8242 88.0782 22.4157 87.8328 23.0326 87.8323H23.5287C24.1453 87.8334 24.7362 88.079 25.172 88.5152C25.6078 88.9514 25.8529 89.5426 25.8534 90.1592C25.8541 91.2481 25.4729 92.3028 24.7762 93.1396L18.8259 100.246C18.6966 100.401 18.6141 100.59 18.5882 100.79C18.5622 100.991 18.5939 101.195 18.6794 101.378C18.7649 101.561 18.9008 101.716 19.0711 101.824C19.2414 101.933 19.4392 101.991 19.6413 101.992H26.9179C27.2002 101.992 27.471 101.879 27.6706 101.68C27.8702 101.48 27.9824 101.209 27.9824 100.927C27.9824 100.645 27.8702 100.374 27.6706 100.174C27.471 99.9749 27.2002 99.8627 26.9179 99.8627H21.9277L26.4176 94.5C27.4306 93.2805 27.9843 91.7445 27.9824 90.1592Z" fill="#FF2424"/>
<path d="M90.3933 90.0634C90.3936 89.4379 90.2683 88.8188 90.0249 88.2426C89.7814 87.6665 89.4248 87.145 88.9761 86.7092C88.5274 86.2735 87.9958 85.9322 87.4128 85.7057C86.8298 85.4791 86.2072 85.372 85.582 85.3905C83.0827 85.4671 81.0517 87.6301 81.0517 90.2146C81.0517 90.4969 81.1638 90.7676 81.3635 90.9673C81.5631 91.1669 81.8338 91.279 82.1161 91.279C82.3985 91.279 82.6692 91.1669 82.8688 90.9673C83.0685 90.7676 83.1806 90.4969 83.1806 90.2146C83.1806 88.7691 84.2855 87.5598 85.6459 87.5194C85.9867 87.5109 86.3257 87.5699 86.6436 87.6931C86.9615 87.8162 87.2519 88.001 87.498 88.2368C87.8585 88.5853 88.107 89.0333 88.2118 89.5237C88.3165 90.014 88.2728 90.5244 88.0861 90.9898C87.8995 91.4552 87.5784 91.8544 87.1638 92.1364C86.7493 92.4185 86.2601 92.5706 85.7587 92.5734C85.4764 92.5734 85.2056 92.6856 85.006 92.8852C84.8064 93.0848 84.6943 93.3555 84.6943 93.6379C84.6943 93.9202 84.8064 94.1909 85.006 94.3905C85.2056 94.5902 85.4764 94.7023 85.7587 94.7023C86.2606 94.7047 86.7503 94.8566 87.1653 95.1388C87.5803 95.421 87.9018 95.8205 88.0885 96.2863C88.2752 96.7521 88.3188 97.2631 88.2136 97.7538C88.1084 98.2445 87.8593 98.6927 87.498 99.041C87.2518 99.2768 86.9614 99.4615 86.6436 99.5846C86.3257 99.7077 85.9866 99.7668 85.6459 99.7585C84.2855 99.718 83.1806 98.5088 83.1806 97.0633C83.1806 96.781 83.0685 96.5102 82.8688 96.3106C82.6692 96.111 82.3985 95.9988 82.1161 95.9988C81.8338 95.9988 81.5631 96.111 81.3635 96.3106C81.1638 96.5102 81.0517 96.781 81.0517 97.0633C81.0517 99.6478 83.0827 101.811 85.582 101.885H85.7268C86.6859 101.886 87.6218 101.59 88.4069 101.04C89.192 100.489 89.7882 99.7092 90.114 98.8072C90.4399 97.9051 90.4797 96.9246 90.228 95.9991C89.9762 95.0737 89.4452 94.2484 88.7072 93.6357C89.2346 93.2017 89.6592 92.6562 89.9508 92.0386C90.2423 91.4209 90.3934 90.7464 90.3933 90.0634Z" fill="#FF2424"/>
</g>
<defs>
<filter id="filter0_d_3_214" x="-4" y="0" width="117" height="117" filterUnits="userSpaceOnUse" color-interpolation-filters="sRGB">
<feFlood flood-opacity="0" result="BackgroundImageFix"/>
<feColorMatrix in="SourceAlpha" type="matrix" values="0 0 0 0 0 0 0 0 0 0 0 0 0 0 0 0 0 0 127 0" result="hardAlpha"/>
<feOffset dy="4"/>
<feGaussianBlur stdDeviation="2"/>
<feComposite in2="hardAlpha" operator="out"/>
<feColorMatrix type="matrix" values="0 0 0 0 0 0 0 0 0 0 0 0 0 0 0 0 0 0 0.25 0"/>
<feBlend mode="normal" in2="BackgroundImageFix" result="effect1_dropShadow_3_214"/>
<feBlend mode="normal" in="SourceGraphic" in2="effect1_dropShadow_3_214" result="shape"/>
</filter>
</defs>
</svg>
