<?xml version="1.0" ?><svg data-name="Layer 1" id="Layer_1" viewBox="0 0 512 512" xmlns="http://www.w3.org/2000/svg"><path d="M478.22,365.64H335.08v-96a5,5,0,0,0-5-5H296.42V135.61l75.16-65.89A21.29,21.29,0,0,0,373.69,40a20.81,20.81,0,0,0-29.58-2.13L295.66,80.31a41,41,0,0,0,.32-5,40,40,0,0,0-80,0,41,41,0,0,0,.32,5L167.89,37.83A20.81,20.81,0,0,0,138.31,40a21.3,21.3,0,0,0,2.11,29.76l75.16,65.89V264.67H181.93a5,5,0,0,0-5,5v96H33.78a5,5,0,0,0-5,5V474.35a5,5,0,0,0,10,0V375.64H176.93v98.71a5,5,0,0,0,10,0V274.67H325.08V474.35a5,5,0,0,0,10,0V375.64H473.22v98.71a5,5,0,0,0,10,0V370.64A5,5,0,0,0,478.22,365.64ZM226,75.33a30,30,0,1,1,51.3,21.06l-.82.71a5.27,5.27,0,0,0-.51.55,29.91,29.91,0,0,1-40,0,5.27,5.27,0,0,0-.51-.55l-.82-.71A29.9,29.9,0,0,1,226,75.33Zm-.46,57.86c0-.18,0-.35-.05-.53a3.69,3.69,0,0,0-.08-.46,3.88,3.88,0,0,0-.14-.45,3.75,3.75,0,0,0-.17-.47,3.11,3.11,0,0,0-.22-.4,4,4,0,0,0-.27-.44,3,3,0,0,0-.28-.34,4.73,4.73,0,0,0-.37-.4l-.11-.11L147,62.2a11.25,11.25,0,0,1-1.1-15.73,10.74,10.74,0,0,1,7.48-3.79,10.88,10.88,0,0,1,7.91,2.67l66.61,58.4a39.91,39.91,0,0,0,56.18,0l66.61-58.4a10.93,10.93,0,0,1,7.91-2.67,10.74,10.74,0,0,1,7.48,3.79A11.25,11.25,0,0,1,365,62.2l-76.86,67.39a1.14,1.14,0,0,0-.11.11,4.73,4.73,0,0,0-.37.4,3,3,0,0,0-.28.34,4,4,0,0,0-.27.44,3.11,3.11,0,0,0-.22.4,3.75,3.75,0,0,0-.17.47,3.88,3.88,0,0,0-.14.45,3.69,3.69,0,0,0-.08.46c0,.18,0,.35-.05.53s0,.1,0,.15V264.67H261V199.84a5,5,0,0,0-10,0v64.83H225.58V133.34C225.58,133.29,225.56,133.24,225.56,133.19Z" style="fill:#231f20"/><path d="M53.91,222.38a5.07,5.07,0,0,0,.09.54c0,.08,0,.17,0,.25s0,.12.06.19.09.26.14.39.14.31.22.46.12.23.18.33A5.15,5.15,0,0,0,55,225c.08.09.14.19.22.27a5.11,5.11,0,0,0,.48.45c.06,0,.11.11.18.16a5.15,5.15,0,0,0,.74.47l.27.11a4.49,4.49,0,0,0,.61.23l.14,0c.3.08,29.93,8.35,29.93,48.75a5,5,0,0,0,10,0c0-40.07,28.69-48.41,29.94-48.75l.11,0a3.94,3.94,0,0,0,.68-.25l.21-.09a6.06,6.06,0,0,0,.76-.48l.14-.12c.18-.16.35-.32.51-.49l.2-.25a5.66,5.66,0,0,0,.34-.47l.17-.31a5.11,5.11,0,0,0,.22-.48c.05-.13.1-.26.14-.39a1.27,1.27,0,0,0,.06-.18,1,1,0,0,0,0-.25,4.85,4.85,0,0,0,.09-.55,3.7,3.7,0,0,0,0-.47,3.85,3.85,0,0,0,0-.48,4.85,4.85,0,0,0-.09-.55,1,1,0,0,0,0-.24,1.15,1.15,0,0,0-.06-.17,5.62,5.62,0,0,0-.19-.53l-.18-.39c-.09-.15-.18-.3-.28-.44l-.26-.37c-.11-.13-.24-.25-.36-.38s-.2-.2-.31-.29a3.65,3.65,0,0,0-.45-.32l-.34-.22-.5-.23c-.14,0-.27-.11-.41-.15s-.14-.06-.21-.08c-.31-.08-29.93-8.34-29.93-48.74a5,5,0,0,0-10,0c0,40.07-28.7,48.4-29.95,48.75l-.22.08-.35.13a5.69,5.69,0,0,0-.56.26l-.27.17c-.18.12-.36.24-.52.37l-.25.24c-.14.14-.28.28-.41.43l-.23.32q-.17.24-.3.48c-.06.12-.11.25-.17.37a3.62,3.62,0,0,0-.2.55.76.76,0,0,0-.06.16c0,.08,0,.16,0,.24a5,5,0,0,0-.09.56c0,.15,0,.31,0,.46S53.9,222.21,53.91,222.38ZM92.53,195.8a54.5,54.5,0,0,0,22,26.1,54.47,54.47,0,0,0-22,26.09,54.53,54.53,0,0,0-22-26.09A54.56,54.56,0,0,0,92.53,195.8Z" style="fill:#231f20"/><path d="M380.88,133.9a24.94,24.94,0,0,1,.11.72c0,.1.07.18.1.28l.05.14a6.36,6.36,0,0,0,.34.75l0,.08a5.3,5.3,0,0,0,.51.73l0,0a5,5,0,0,0,1.5,1.17l.09,0a4.2,4.2,0,0,0,.77.29l.1,0c1.22.34,30,8.66,30,48.76a5,5,0,1,0,10,0c0-40.08,28.69-48.41,29.94-48.76l.11,0a4.86,4.86,0,0,0,.67-.25l.21-.09a4.89,4.89,0,0,0,.76-.48l.14-.13a4.77,4.77,0,0,0,.52-.48l.2-.25a5,5,0,0,0,.33-.47,3.3,3.3,0,0,0,.18-.32c.08-.15.15-.31.22-.47s.1-.26.14-.39a1.27,1.27,0,0,0,.06-.18c0-.09,0-.17,0-.25a5,5,0,0,0,.09-.56c0-.15,0-.31,0-.46s0-.32,0-.49a5.07,5.07,0,0,0-.09-.54c0-.08,0-.16,0-.25a1.66,1.66,0,0,0-.06-.16,3.39,3.39,0,0,0-.2-.53,3.52,3.52,0,0,0-.18-.4,3.87,3.87,0,0,0-.27-.43,3.18,3.18,0,0,0-.27-.37,3.92,3.92,0,0,0-.34-.37c-.11-.11-.21-.21-.33-.31s-.28-.2-.42-.3-.25-.17-.38-.24-.3-.14-.46-.21l-.45-.17-.2-.07c-.3-.08-29.92-8.34-29.92-48.74a5,5,0,1,0-10,0c0,40.09-28.73,48.41-30,48.75a1.15,1.15,0,0,0-.17.06,5.1,5.1,0,0,0-.5.19l-.41.19-.41.26-.4.28c-.11.09-.21.2-.31.3a4.51,4.51,0,0,0-.37.39c-.08.1-.14.2-.21.3a6,6,0,0,0-.34.53l-.11.26a4.32,4.32,0,0,0-.26.68l0,.09s0,.1,0,.15a4.4,4.4,0,0,0-.12.74,2.44,2.44,0,0,0,0,.27A4,4,0,0,0,380.88,133.9Zm38.6-26.65a54.49,54.49,0,0,0,22,26.1,54.41,54.41,0,0,0-22,26.09,54.48,54.48,0,0,0-22-26.09A54.56,54.56,0,0,0,419.48,107.25Z" style="fill:#231f20"/><path d="M266.06,314.13a5,5,0,0,0-5.45,1.08L244.32,331.5a5,5,0,0,0,7.07,7.07l7.75-7.75v54.45a5,5,0,0,0,10,0V318.75A5,5,0,0,0,266.06,314.13Z" style="fill:#231f20"/><path d="M131.44,423.5a21,21,0,0,0-20.92-20.93h-2.33A21,21,0,0,0,87.26,423.5a5,5,0,0,0,10,0,10.94,10.94,0,0,1,10.93-10.93h2.33a10.94,10.94,0,0,1,10.92,10.93,21.86,21.86,0,0,1-5.06,14L88.43,470.88a5,5,0,0,0,3.83,8.2h34.18a5,5,0,0,0,0-10H103l21.09-25.19A31.85,31.85,0,0,0,131.44,423.5Z" style="fill:#231f20"/><path d="M424.6,423.05A21.95,21.95,0,0,0,402,401.1c-11.74.36-21.28,10.52-21.28,22.66a5,5,0,0,0,10,0c0-6.79,5.19-12.47,11.58-12.66a12.14,12.14,0,0,1,8.7,3.37,11.85,11.85,0,0,1-8.17,20.37,5,5,0,0,0,0,10A11.85,11.85,0,0,1,411,465.22a12.15,12.15,0,0,1-8.7,3.37c-6.39-.19-11.58-5.87-11.58-12.66a5,5,0,0,0-10,0c0,12.14,9.54,22.3,21.28,22.65h.68a21.9,21.9,0,0,0,14-38.75A21.73,21.73,0,0,0,424.6,423.05Z" style="fill:#231f20"/></svg>